<?xml version="1.0" standalone="no"?>
<!DOCTYPE svg PUBLIC "-//W3C//DTD SVG 20010904//EN"
 "http://www.w3.org/TR/2001/REC-SVG-20010904/DTD/svg10.dtd">
<svg version="1.0" xmlns="http://www.w3.org/2000/svg"
 width="512.000000pt" height="512.000000pt" viewBox="0 0 512.000000 512.000000"
 preserveAspectRatio="xMidYMid meet">
<metadata>
Created by potrace 1.16, written by Peter Selinger 2001-2019
</metadata>
<g transform="translate(0.000000,512.000000) scale(0.100000,-0.100000)"
fill="#000000" stroke="none">
<path d="M1820 3966 c-3 -2 -86 -10 -185 -15 -299 -18 -402 -31 -438 -55 -38
-26 -47 -74 -22 -112 15 -24 18 -24 158 -24 78 0 162 -5 187 -11 69 -17 367
-16 415 0 57 20 278 31 678 36 332 4 417 10 480 34 34 13 34 24 0 56 -34 31
-66 41 -168 54 -91 12 -554 16 -660 6 -63 -6 -345 15 -415 31 -14 3 -28 3 -30
0z"/>
<path d="M2785 3525 c-33 -7 -75 -20 -94 -28 -27 -11 -67 -13 -190 -9 -86 2
-161 9 -168 14 -20 16 -573 15 -612 -1 -24 -11 -35 -11 -44 -2 -14 14 -273 15
-282 1 -3 -5 -19 -10 -35 -10 -16 0 -32 5 -35 10 -3 6 -19 10 -34 10 -26 0
-39 -9 -95 -69 -27 -30 -38 -27 -91 24 -61 57 -98 65 -161 34 -65 -33 -109
-90 -162 -211 -40 -90 -46 -113 -48 -183 -1 -44 -6 -143 -11 -220 -10 -157 1
-947 16 -1215 5 -96 13 -245 16 -330 9 -227 11 -237 41 -237 14 0 28 6 31 14
4 10 14 12 34 8 34 -8 39 0 69 110 12 44 28 89 35 100 25 40 35 124 45 355 6
152 6 256 0 295 -13 82 -13 270 2 352 8 52 8 103 -1 213 -6 80 -16 248 -22
373 l-11 228 74 70 73 69 59 0 c51 0 64 4 87 26 l28 27 41 -36 c52 -44 74 -48
270 -46 186 1 301 1 315 -1 6 -1 79 -4 163 -7 128 -4 157 -2 177 11 13 9 32
16 42 16 10 0 32 9 48 20 20 14 47 20 83 20 67 0 162 46 146 71 -11 19 34 8
66 -16 23 -17 47 -25 76 -25 23 0 75 -11 116 -24 70 -23 77 -24 133 -10 33 7
93 16 134 18 64 4 77 9 95 30 38 44 55 47 121 19 50 -21 65 -24 89 -15 16 6
32 9 36 7 15 -9 243 -18 403 -16 141 3 171 1 192 -13 31 -21 33 -46 3 -46 -13
0 -38 -9 -57 -21 -27 -16 -32 -24 -26 -42 12 -42 15 -253 5 -392 -6 -77 -11
-155 -13 -174 -2 -32 -6 -36 -50 -51 -40 -14 -99 -18 -330 -20 -155 -2 -316
-3 -358 -4 -44 -1 -86 4 -100 12 -13 6 -53 16 -89 21 -55 8 -72 6 -108 -10
-62 -27 -152 -101 -189 -156 l-32 -48 -2 -325 c-1 -179 1 -424 5 -545 l6 -220
74 -63 c41 -34 80 -62 86 -62 6 0 31 -14 55 -30 34 -23 67 -34 137 -46 51 -9
111 -23 133 -32 28 -10 85 -16 195 -18 85 -1 238 -6 340 -9 301 -12 273 -16
465 69 67 30 81 40 87 65 5 17 21 37 41 48 22 14 37 33 47 62 7 24 28 55 45
69 38 32 50 53 60 107 4 22 11 46 17 52 6 7 7 24 4 39 -4 14 1 57 10 96 15 63
16 72 2 102 -14 28 -14 41 -2 101 7 39 13 85 14 103 0 28 -3 32 -26 32 -32 0
-64 -17 -64 -34 0 -7 -11 -33 -24 -57 -13 -24 -34 -78 -46 -119 -29 -100 -135
-269 -240 -382 -69 -74 -95 -94 -167 -130 l-86 -43 -306 -3 c-325 -3 -359 0
-404 42 l-26 25 -1 283 c0 319 -5 464 -20 582 -14 114 -15 110 40 150 31 22
47 41 44 49 -8 22 52 67 90 67 18 0 52 -13 79 -30 l48 -30 97 13 c53 7 178 12
277 12 l180 0 12 -80 c26 -165 22 -154 64 -167 46 -13 73 -6 199 56 76 37 86
46 110 91 27 53 27 45 15 304 -6 111 -4 132 16 194 19 61 21 74 10 104 -16 43
-17 183 -2 211 6 12 11 47 11 78 0 32 5 73 12 91 12 32 11 35 -27 73 -22 21
-96 69 -165 107 l-125 68 -335 1 c-225 0 -367 -4 -432 -13 -130 -17 -276 -17
-308 2 -32 18 -154 18 -235 0z"/>
<path d="M1465 3080 c-33 -4 -86 -8 -117 -9 -31 -1 -68 -6 -81 -12 -22 -10
-67 -85 -67 -112 0 -6 23 -29 51 -49 43 -33 58 -38 102 -38 29 0 84 7 122 15
39 8 118 15 178 15 105 0 108 1 117 24 15 41 42 49 95 26 25 -11 88 -25 138
-31 51 -5 115 -14 142 -19 30 -5 70 -4 100 2 28 5 68 14 90 18 21 4 47 18 57
30 25 31 24 92 -3 116 -20 18 -42 19 -333 21 -171 2 -360 5 -421 7 -60 2 -137
0 -170 -4z"/>
<path d="M1238 2585 c-156 -52 -220 -113 -169 -159 11 -10 21 -32 23 -50 3
-31 4 -31 54 -29 28 1 82 14 119 28 37 14 76 25 85 25 10 0 31 11 47 24 15 13
44 27 63 31 19 4 43 14 52 23 16 14 26 13 95 -2 107 -23 224 -32 251 -17 16 8
44 8 114 -1 66 -8 150 -9 294 -2 227 10 244 16 244 81 0 27 -5 35 -27 44 -55
21 -294 30 -730 27 -427 -2 -455 -4 -515 -23z"/>
<path d="M1799 2356 c-4 -4 -16 -8 -27 -11 -12 -2 -36 -10 -54 -19 -58 -26
-95 -29 -130 -10 -18 9 -41 21 -50 25 -22 11 -118 12 -118 1 0 -5 -18 -19 -40
-31 -73 -41 -76 -47 -85 -194 -4 -73 -10 -208 -12 -302 -2 -93 -4 -201 -6
-240 -1 -38 3 -95 10 -125 6 -30 15 -87 18 -126 7 -69 8 -71 44 -88 20 -9 63
-31 95 -47 l59 -30 31 30 c17 17 46 42 64 57 27 22 32 32 30 61 -2 24 2 38 12
43 8 4 25 12 37 18 14 7 107 14 240 18 204 5 220 5 253 -14 30 -16 35 -25 38
-61 3 -35 9 -46 49 -76 25 -19 56 -35 69 -35 12 0 26 -4 29 -10 3 -5 21 -10
40 -10 42 0 67 32 84 112 7 31 21 68 32 81 16 22 19 40 18 139 -2 170 -14 306
-34 370 -16 54 -17 60 -1 92 17 36 15 64 -7 119 -7 15 -16 27 -20 27 -5 0 -6
17 -3 38 6 34 3 41 -39 87 -25 27 -45 52 -45 56 0 9 -103 59 -122 59 -8 0 -18
-3 -21 -6 -7 -8 -109 -7 -302 2 -71 3 -133 3 -136 0z m66 -156 c4 -6 63 -10
143 -10 166 0 205 -6 236 -35 l25 -23 -24 -73 c-23 -74 -45 -264 -45 -392 0
-108 3 -107 -225 -107 -118 0 -196 4 -200 10 -3 6 -28 10 -55 10 -38 0 -54 5
-70 22 -23 25 -23 24 -20 106 1 41 -3 70 -13 85 -11 17 -14 57 -14 166 l0 145
31 28 c17 15 38 28 48 28 9 0 20 5 23 10 3 6 28 10 54 10 26 0 56 7 67 15 23
17 31 18 39 5z"/>
</g>
</svg>
